Coordinates
version=1
nRows=13
nColumns=22
inDegrees=yes

Units are S.I. units (second, meters, Newtons, ...)
If the header above contains a line with 'inDegrees', this indicates whether rotational values are in degrees (yes) or radians (no).

endheader
time	pelvis_tilt	pelvis_list	pelvis_rotation	pelvis_tx	pelvis_ty	pelvis_tz	hip_flexion_r	hip_adduction_r	hip_rotation_r	knee_angle_r	ankle_angle_r	subtalar_angle_r	hip_flexion_l	hip_adduction_l	hip_rotation_l	knee_angle_l	ankle_angle_l	subtalar_angle_l	lumbar_extension	lumbar_bending	lumbar_rotation
      4.31000000	      5.56012582	     -0.11810533	   -185.03115288	     -0.50696345	      0.84114803	     -0.39242213	     32.70481996	     -2.31431096	      6.57788640	    -12.00385495	     -7.09595491	      2.45634420	     -7.32953601	     -1.92444697	      4.99748365	    -21.38318902	     24.58937617	     -0.66506762	     -1.95503847	      3.50609081	      1.05647541
      4.32000000	      5.50106095	      0.18031989	   -185.17328438	     -0.51620693	      0.84164839	     -0.39525657	     32.96077844	     -1.65260197	      6.66371359	    -13.70298333	     -7.68036324	      1.09228176	     -7.59851152	     -2.35217927	      4.95105465	    -22.28007506	     23.78409740	     -0.21655165	     -1.85211613	      3.99917467	      1.56094302
      4.33000000	      5.43902504	      0.41825780	   -185.34748034	     -0.52534699	      0.84260990	     -0.39805355	     33.19901968	     -1.04783911	      6.73739190	    -15.41787464	     -7.70966789	     -0.15485947	     -7.75607046	     -2.70204733	      4.86729289	    -23.31920449	     22.73041455	      0.30405029	     -1.75912135	      4.42530958	      2.04885696
      4.34000000	      5.36072962	      0.60387948	   -185.52049444	     -0.53440496	      0.84403911	     -0.40075493	     33.33951043	     -0.52468220	      6.81601680	    -17.03056842	     -7.30537179	     -1.14881985	     -7.79834427	     -2.98845769	      4.74765314	    -24.51690818	     21.42494822	      0.90839787	     -1.68770162	      4.78973076	      2.49265977
      4.35000000	      5.26709571	      0.70454188	   -185.67719984	     -0.54335744	      0.84588112	     -0.40331802	     33.34309553	     -0.13030472	      6.93734062	    -18.44323979	     -6.59740787	     -1.79958903	     -7.69233855	     -3.18142564	      4.57328381	    -25.90541206	     19.86833280	      1.59548668	     -1.63286194	      5.05449300	      2.89033311
      4.36000000	      5.16478848	      0.76501480	   -185.77000124	     -0.55226434	      0.84810706	     -0.40571017	     33.15221982	      0.14769804	      7.01670846	    -19.54621828	     -5.73445179	     -2.22597938	     -7.43367694	     -3.34823420	      4.36665439	    -27.46989346	     18.05256095	      2.49075439	     -1.57617431	      5.26361675	      3.22599124
      4.37000000	      5.05922808	      0.73311191	   -185.78679540	     -0.56104240	      0.85061124	     -0.40788710	     32.79789426	      0.26219923	      7.11875552	    -20.35340256	     -4.80195122	     -2.40955167	     -6.99395494	     -3.44287164	      4.10881715	    -29.21120501	     16.00320029	      3.55078122	     -1.51363886	      5.36408582	      3.45215400
      4.38000000	      4.95444353	      0.64291004	   -185.70307812	     -0.56969886	      0.85331140	     -0.40985129	     32.28156961	      0.23830972	      7.16897669	    -20.86201230	     -3.87011938	     -2.47033322	     -6.37011456	     -3.51959072	      3.80740774	    -31.12612938	     13.77104312	      4.87427931	     -1.43932648	      5.38892341	      3.57388990
      4.39000000	      4.85868876	      0.48999256	   -185.50340001	     -0.57818149	      0.85610898	     -0.41157686	     31.64374902	      0.07281427	      7.14785407	    -21.11832371	     -2.98414308	     -2.48314039	     -5.55328235	     -3.58215223	      3.48887364	    -33.20062672	     11.41458516	      6.48143496	     -1.34756003	      5.33341406	      3.58757462
      4.40000000	      4.78022701	      0.29610472	   -185.18512046	     -0.58645138	      0.85892024	     -0.41307551	     30.91230628	     -0.20648069	      7.01959823	    -21.15043348	     -2.17837584	     -2.50145638	     -4.54855472	     -3.65859939	      3.17232146	    -35.41414755	      9.02052286	      8.39831762	     -1.23672427	      5.21957449	      3.50416327
      4.41000000	      4.72238756	      0.08727381	   -184.75131960	     -0.59444588	      0.86165833	     -0.41435272	     30.12379359	     -0.56195325	      6.78786411	    -21.02041697	     -1.44876044	     -2.55221950	     -3.36515242	     -3.77470537	      2.88182638	    -37.75055631	      6.71988885	     10.62314915	     -1.11520169	      5.07818208	      3.32847124
      4.42000000	      4.65345272	     -0.10489427	   -184.23828798	     -0.60211780	      0.86432400	     -0.41547480	     29.27016870	     -0.93945170	      6.46305546	    -20.76668188	     -0.84543323	     -2.64469853	     -2.07165944	     -3.95664998	      2.60501416	    -40.16231929	      4.60842612	     13.16442900	     -1.03527289	      4.94044165	      3.11552101
      4.43000000	      4.62624334	     -0.26084145	   -183.64447272	     -0.60943573	      0.86676745	     -0.41643915	     28.42584373	     -1.31259916	      6.02922679	    -20.42671318	     -0.25992921	     -2.76713675	     -0.61692020	     -4.22277747	      2.35892064	    -42.64315168	      2.84330389	     15.79509129	     -0.93746503	      4.83152044	      2.85588055
